<svg width="175" height="180" viewBox="0 0 175 180" fill="none" xmlns="http://www.w3.org/2000/svg">
  <g clip-path="url(#clip0_146_88)">
    <path d="M86.0444 84.4517V90.6635H168.8V173.788H149.735V165.483C149.735 159.295 145.579 153.808 139.629 152.144L128.166 148.935V147.134C130.318 146.513 132.253 145.174 133.61 143.23L134.363 142.15C136.132 139.619 137.069 136.648 137.069 133.559V130.961C139.016 126.983 140.004 122.626 140.004 118.001V115.642C140.004 114.02 139.605 112.362 139.156 111.008C140.62 109.23 141.486 106.961 141.486 104.501V102.369C141.486 101.262 141.028 100.192 140.224 99.4311C139.421 98.6706 138.325 98.2681 137.227 98.3277L115.105 99.5325H115.06C101.859 100.532 97.0667 109.714 97.0667 115.642V118.004C97.0667 128.245 101.919 134.88 104.809 137.925C105.431 138.581 106.273 138.93 107.137 138.93C107.244 138.93 107.351 138.924 107.458 138.912C107.955 139.872 108.592 140.752 109.342 141.53V148.195L95.0159 152.033L94.9236 152.06C89.1609 153.897 85.2883 159.202 85.2883 165.259V173.788H68.923V114.127H62.7228V179.997H174.991V84.4517H86.0444ZM102.514 154.345L110.33 152.251C111.631 154.252 114.626 157.067 121.183 157.067C124.073 157.067 125.711 155.94 126.574 154.995C127.115 154.401 127.476 153.754 127.717 153.137L135.408 155.29C140.4 157.807 140.659 164.77 140.659 166.154V172.855H106.148V165.402C106.148 163.213 106.142 157.741 102.514 154.342V154.345ZM114.06 144.435L122.365 147.053C122.907 147.223 123.454 147.342 123.999 147.42V150.48H125.964V150.492L124.008 150.665V150.632C124.008 150.632 124.053 151.589 123.481 152.194C123.046 152.657 122.273 152.889 121.183 152.889C115.432 152.889 113.852 150.199 113.518 149.433V144.244C113.697 144.31 113.879 144.375 114.06 144.432V144.435ZM145.567 172.858H144.823V166.157C144.823 165.027 144.716 162.715 143.984 160.19C144.99 161.728 145.567 163.556 145.567 165.48V172.858ZM130.952 139.753L130.199 140.832C128.72 142.947 126.077 143.847 123.615 143.072L115.31 140.454C112.355 139.52 110.369 136.809 110.369 133.705V121.192C110.369 119.519 111.566 118.108 113.215 117.84L132.688 114.667C132.759 114.655 132.831 114.64 132.902 114.628V133.562C132.902 135.79 132.226 137.931 130.952 139.756V139.753ZM101.24 118.001V115.639C101.24 111.27 104.999 104.489 115.358 103.699L137.319 102.503V104.501C137.319 107.525 135.105 110.065 132.033 110.54L112.542 113.716C108.866 114.315 106.199 117.458 106.199 121.189V133.118C103.88 130.061 101.237 125.033 101.237 118.001H101.24ZM89.4615 165.256C89.4615 161.039 92.1464 157.345 96.1499 156.047L96.6649 155.91C101.326 156.963 101.984 161.084 101.984 165.405V172.858H89.4645V165.256H89.4615Z" fill="#D9D9D9"/>
    <path d="M150.211 0H61.0649V50.7981H0V117.235H17.6512L22.8245 126.667H36.1031L30.9298 117.235H89.1431V66.4365H120.344L114.358 77.3512H127.636L133.622 66.4365H150.211V0ZM82.9458 111.023H6.20025V57.0069H61.0649V66.4365H82.9428V111.023H82.9458ZM144.011 60.2276H67.2651V6.21183H144.011V60.2276Z" fill="#23AFB3"/>
    <path d="M126.604 16.7239H78.6149V23.4934H126.604V16.7239Z" fill="#D9D9D9"/>
    <path d="M126.604 29.8335H78.6149V36.603H126.604V29.8335Z" fill="#D9D9D9"/>
    <path d="M126.604 42.9431H78.6149V49.7125H126.604V42.9431Z" fill="#D9D9D9"/>
    <path d="M63.1247 67.522H15.136V74.2915H63.1247V67.522Z" fill="#D9D9D9"/>
    <path d="M63.1247 80.6315H15.136V87.401H63.1247V80.6315Z" fill="#D9D9D9"/>
    <path d="M63.1247 93.7411H15.136V100.511H63.1247V93.7411Z" fill="#D9D9D9"/>
  </g>
  <defs>
    <clipPath id="clip0_146_88">
      <rect width="175" height="180" fill="white"/>
    </clipPath>
  </defs>
</svg>