<svg width="57" height="65" viewBox="0 0 57 65" fill="none" xmlns="http://www.w3.org/2000/svg">
<g id="Frame" clip-path="url(#clip0_603_137)">
<path id="Vector" d="M5.18755 58.5017L0 0H57L51.8072 58.4925L28.4645 65L5.18755 58.5017Z" fill="#E44D26"/>
<path id="Vector_2" d="M28.5 60.0258L47.3611 54.7688L51.7993 4.78381H28.5V60.0258Z" fill="#F16529"/>
<path id="Vector_3" d="M28.5 26.4809H19.0569L18.4049 19.1339H28.5V11.9589H28.475H10.6064L10.7773 13.8835L12.5311 33.6559H28.5V26.4809Z" fill="#EBEBEB"/>
<path id="Vector_4" d="M28.5 45.1152L28.4685 45.1232L20.5215 42.9659L20.014 37.2435H16.1516H12.8506L13.8497 48.5098L28.4672 52.589L28.5 52.5798V45.1152Z" fill="#EBEBEB"/>
<path id="Vector_5" d="M28.4751 26.481V33.656H37.2621L36.4339 42.962L28.4751 45.1219V52.5864L43.1044 48.5098L43.2109 47.2977L44.8883 28.4082L45.0619 26.481H43.1399H28.4751Z" fill="white"/>
<path id="Vector_6" d="M28.4751 11.9589V16.4149V19.1154V19.1339H45.6889H45.7113L45.8546 17.5213L46.1806 13.8835L46.3502 11.9589H28.4751Z" fill="white"/>
</g>
<defs>
<clipPath id="clip0_603_137">
<rect width="57" height="65" fill="white"/>
</clipPath>
</defs>
</svg>
