<svg width="182" height="195" viewBox="0 0 182 195" fill="none" xmlns="http://www.w3.org/2000/svg">
<g clip-path="url(#clip0_141_25)">
<path d="M32.5779 119.925L36.8522 128.112L39.8869 126.882L37.2258 118.028C37.9464 117.616 38.634 117.161 39.2918 116.66L46.4322 122.551L48.7495 120.239L42.8455 113.114C43.2951 112.527 43.7083 111.913 44.0884 111.276L52.9246 114.054L54.2006 111.042L46.0487 106.662C46.2636 105.87 46.4289 105.062 46.5413 104.234L55.7609 103.363V100.094L46.5413 99.2235C46.4421 98.4813 46.3033 97.7523 46.1215 97.0431L54.3263 92.7781L53.0932 89.7501L44.2207 92.4054C43.8074 91.6863 43.3513 91.0002 42.8488 90.3438L48.7528 83.2189L46.4355 80.9067L39.2951 86.7979C38.7067 86.3493 38.0919 85.9369 37.4538 85.5576L40.2373 76.7406L37.2191 75.4674L32.8291 83.6016C32.0358 83.3872 31.2259 83.2222 30.3961 83.1101L29.5234 73.9138H26.2474L25.3747 83.1101C24.6309 83.2091 23.9004 83.3476 23.1896 83.529L18.9153 75.342L15.8807 76.5724L18.5418 85.4257C17.8211 85.838 17.1336 86.2932 16.4757 86.7946L9.33535 80.9034L7.01803 83.2156L12.9221 90.3405C12.4725 90.9276 12.0593 91.5412 11.6791 92.1778L2.8429 89.4004L1.56689 92.412L9.71881 96.7925C9.50394 97.5841 9.33865 98.3922 9.22626 99.2202L0.0065918 100.091V103.36L9.22626 104.231C9.32543 104.973 9.46427 105.702 9.64609 106.411L1.44128 110.676L2.67431 113.704L11.5469 111.049C11.9601 111.768 12.4163 112.454 12.9188 113.11L7.01473 120.235L9.33204 122.547L16.4724 116.656C17.0608 117.105 17.6757 117.517 18.3137 117.897L15.5303 126.714L18.5484 127.987L22.9384 119.853C23.7318 120.067 24.5417 120.232 25.3714 120.344L26.2441 129.54H29.5201L30.3928 120.344C31.1366 120.245 31.8672 120.107 32.5779 119.925ZM27.8805 114.262C20.9517 114.262 15.3154 108.638 15.3154 101.724C15.3154 94.81 20.9517 89.186 27.8805 89.186C34.8093 89.186 40.4455 94.81 40.4455 101.724C40.4455 108.638 34.8093 114.262 27.8805 114.262Z" fill="#D9D9D9"/>
<path d="M106.626 144.226L111.614 141.633L109.862 137.328L104.467 138.941C103.264 136.586 101.793 134.389 100.097 132.39L103.694 128.049L100.401 124.764L96.0511 128.353C94.1635 126.76 92.104 125.368 89.9024 124.21L91.595 118.847L87.3074 117.039L84.6397 121.983C82.1703 121.179 79.5819 120.644 76.9043 120.423L76.3721 114.832H71.7176L71.1854 120.423C68.6697 120.631 66.2301 121.113 63.8963 121.842L61.298 116.864L56.984 118.612L58.6005 123.996C56.2402 125.196 54.0386 126.664 52.0353 128.356L47.685 124.767L44.3925 128.053L47.9891 132.394C46.3925 134.277 44.9975 136.332 43.8371 138.529L38.462 136.84L36.6505 141.118L41.6058 143.78C40.7992 146.244 40.2637 148.827 40.0422 151.499L34.439 152.03V156.674L40.0422 157.205C40.2504 159.715 40.7331 162.15 41.4636 164.479L36.4753 167.071L38.2273 171.376L43.6223 169.763C44.8256 172.118 46.2966 174.315 47.9924 176.314L44.3958 180.655L47.6883 183.94L52.0386 180.351C53.9262 181.944 55.9857 183.336 58.1873 184.494L56.4948 189.858L60.7823 191.665L63.45 186.721C65.9194 187.526 68.5078 188.06 71.1854 188.281L71.7176 193.872H76.3721L76.9043 188.281C79.42 188.073 81.8596 187.591 84.1934 186.863L86.7917 191.84L91.1057 190.092L89.4892 184.709C91.8495 183.508 94.0511 182.04 96.0544 180.348L100.405 183.937L103.697 180.651L100.101 176.31C101.697 174.427 103.092 172.372 104.253 170.175L109.628 171.864L111.439 167.586L106.484 164.924C107.291 162.46 107.826 159.877 108.048 157.205L113.651 156.674V152.03L108.048 151.499C107.839 148.989 107.357 146.554 106.626 144.226ZM91.6776 151.746C91.5983 151.202 91.4892 150.668 91.3636 150.143L95.8461 147.814C96.2726 149.233 96.5668 150.704 96.7089 152.225L91.6809 151.75L91.6776 151.746ZM89.3933 145.317C89.0727 144.78 88.7289 144.255 88.3553 143.754L91.5751 139.871C92.5966 141.102 93.4858 142.441 94.2329 143.869L89.3933 145.317ZM74.0449 166.214C67.4863 166.214 62.1542 160.89 62.1542 154.349C62.1542 147.808 67.4896 142.484 74.0449 142.484C80.6001 142.484 85.9356 147.808 85.9356 154.349C85.9356 160.89 80.6001 166.214 74.0449 166.214ZM84.6628 140.069C84.2265 139.746 83.7736 139.439 83.3075 139.156L84.8248 134.346C86.1537 135.062 87.4 135.903 88.5537 136.857L84.6628 140.069ZM78.501 137.124C77.896 136.969 77.2812 136.847 76.6531 136.754L76.1771 131.737C77.8068 131.889 79.3836 132.212 80.8943 132.687L78.4977 137.124H78.501ZM71.4333 136.754C70.8879 136.833 70.3524 136.942 69.8268 137.068L67.4929 132.595C68.9144 132.169 70.392 131.876 71.9127 131.734L71.4366 136.751L71.4333 136.754ZM64.9905 139.034C64.4516 139.354 63.926 139.697 63.4236 140.069L59.5327 136.857C60.7658 135.837 62.1079 134.947 63.5393 134.201L64.9905 139.03V139.034ZM59.7344 143.754C59.4104 144.189 59.103 144.641 58.8187 145.106L53.9989 143.592C54.7163 142.27 55.5592 141.023 56.5146 139.871L59.7344 143.754ZM56.7824 149.902C56.627 150.506 56.5047 151.119 56.4121 151.746L51.3841 152.221C51.5362 150.595 51.8601 149.022 52.3362 147.511L56.7824 149.902ZM56.4121 156.955C56.4915 157.499 56.6005 158.033 56.7262 158.558L52.2436 160.886C51.8172 159.468 51.5229 157.997 51.3808 156.476L56.4088 156.951L56.4121 156.955ZM58.6964 163.383C59.017 163.921 59.3608 164.446 59.7344 164.947L56.5146 168.829C55.4931 167.599 54.6006 166.26 53.8535 164.832L58.6931 163.383H58.6964ZM63.4269 168.628C63.8632 168.951 64.3161 169.258 64.7822 169.542L63.2649 174.351C61.936 173.635 60.6897 172.794 59.536 171.841L63.4269 168.628ZM69.5887 171.574C70.1937 171.729 70.8086 171.851 71.4366 171.943L71.9127 176.96C70.2829 176.809 68.7061 176.485 67.1954 176.01L69.592 171.574H69.5887ZM76.6564 171.943C77.2018 171.864 77.7374 171.755 78.263 171.63L80.5968 176.103C79.1753 176.528 77.701 176.822 76.1771 176.964L76.6531 171.947L76.6564 171.943ZM83.0992 169.664C83.6381 169.344 84.1637 169.001 84.6662 168.628L88.557 171.841C87.324 172.86 85.9818 173.751 84.5505 174.496L83.0992 169.667V169.664ZM88.3553 164.944C88.6793 164.508 88.9867 164.056 89.271 163.591L94.0908 165.105C93.3734 166.431 92.5305 167.675 91.5751 168.826L88.3553 164.944ZM91.3074 158.795C91.4627 158.192 91.585 157.578 91.6776 156.951L96.7056 156.476C96.5535 158.103 96.2296 159.676 95.7536 161.183L91.3074 158.792V158.795Z" fill="#D9D9D9"/>
<path d="M16.8328 49.9136L12.5419 57.1176L22.6046 67.1583L29.8243 62.8768C31.216 63.5893 32.6738 64.193 34.1845 64.6811L36.2539 72.7989H50.4818L52.5511 64.6811C54.0586 64.193 55.5164 63.5893 56.9114 62.8768L64.1311 67.1583L74.1937 57.1176L69.9029 49.9136C70.6169 48.5249 71.2219 47.0702 71.7111 45.5628L79.8432 43.4979V29.301L71.7078 27.2361C71.2186 25.7319 70.6136 24.2773 69.8996 22.8853L74.1904 15.6813L64.1278 5.64051L56.9081 9.92202C55.5164 9.20953 54.0586 8.6059 52.5478 8.11772L50.4818 0H36.2539L34.1845 8.11772C32.6771 8.6059 31.2193 9.20953 29.8243 9.92202L22.6046 5.64051L12.5419 15.6813L16.8328 22.8853C16.1187 24.274 15.5138 25.7286 15.0246 27.2361L6.88916 29.301V43.4979L15.0212 45.5628C15.5105 47.0669 16.1154 48.5216 16.8295 49.9136H16.8328ZM43.3678 16.5653C54.3296 16.5653 63.2452 25.4615 63.2452 36.3994C63.2452 47.3374 54.3296 56.2336 43.3678 56.2336C32.4061 56.2336 23.4905 47.3374 23.4905 36.3994C23.4905 25.4615 32.4061 16.5653 43.3678 16.5653Z" fill="#D9D9D9"/>
<path d="M43.3679 43.267C47.1628 43.267 50.2504 40.1862 50.2504 36.3994C50.2504 32.6127 47.1628 29.5319 43.3679 29.5319C39.5729 29.5319 36.4854 32.6127 36.4854 36.3994C36.4854 40.1862 39.5729 43.267 43.3679 43.267ZM43.3679 31.8145C45.9001 31.8145 47.9595 33.8694 47.9595 36.3961C47.9595 38.9228 45.9001 40.9778 43.3679 40.9778C40.8357 40.9778 38.7762 38.9228 38.7762 36.3961C38.7762 33.8694 40.8357 31.8145 43.3679 31.8145Z" fill="#D9D9D9"/>
<path d="M146.969 177.419L143.594 177.099L146.84 176.132L146.46 174.216L143.237 174.539L146.113 173.045L145.376 171.237L141.687 172.342L144.662 169.898L143.568 168.282L140.725 169.832L142.791 167.338L141.409 165.96L138.797 168.114L140.411 165.138L138.784 164.053L136.735 166.557L137.707 163.473L135.905 162.714L134.077 166.098L134.447 162.272L132.526 161.902L131.614 165.006L131.307 161.787H129.35L129.029 165.155L128.06 161.916L126.14 162.295L126.464 165.514L124.966 162.645L123.155 163.38L124.262 167.061L121.813 164.093L120.193 165.184L121.747 168.021L119.247 165.96L117.866 167.338L120.024 169.944L117.042 168.335L115.955 169.957L118.464 172.003L115.373 171.033L114.613 172.831L118.004 174.655L114.17 174.285L113.8 176.202L116.91 177.112L113.684 177.419V179.372L117.059 179.691L113.813 180.658L114.193 182.574L117.419 182.251L114.543 183.745L115.281 185.553L118.97 184.448L115.995 186.892L117.089 188.508L119.932 186.958L117.866 189.452L119.247 190.831L121.859 188.677L120.246 191.652L121.872 192.737L123.922 190.234L122.95 193.318L124.751 194.076L126.579 190.692L126.209 194.518L128.13 194.888L129.042 191.784L129.35 195.003H131.307L131.627 191.635L132.596 194.875L134.517 194.495L134.193 191.276L135.69 194.146L137.502 193.41L136.394 189.729L138.844 192.698L140.464 191.606L138.91 188.769L141.409 190.831L142.791 189.452L140.632 186.846L143.614 188.456L144.701 186.833L142.192 184.788L145.283 185.761L146.044 183.963L142.652 182.139L146.487 182.508L146.857 180.592L143.746 179.682L146.972 179.375V177.422L146.969 177.419ZM131.317 188.499H129.356L127.363 188.116L125.492 187.328L123.865 186.239L122.48 184.857L121.343 183.178L120.58 181.301L120.199 179.385V177.429L120.583 175.44L121.373 173.573L122.464 171.95L123.849 170.568L125.532 169.433L127.413 168.671L129.336 168.292H131.297L133.29 168.674L135.161 169.463L136.788 170.551L138.173 171.933L139.31 173.612L140.073 175.489L140.454 177.409V179.365L140.07 181.354L139.28 183.221L138.189 184.844L136.804 186.226L135.121 187.361L133.241 188.123L131.32 188.502L131.317 188.499Z" fill="#D9D9D9"/>
<path d="M78.6398 65.9247C78.3357 67.1121 78.7423 68.2798 79.5489 69.0418C77.4597 69.5333 75.4994 70.3579 73.7242 71.4563C73.7573 70.3447 73.2151 69.2331 72.1573 68.6031C70.8945 67.8543 69.2846 68.0555 68.2433 69.0913L64.9607 72.3667C63.9227 73.4025 63.7211 75.0122 64.4715 76.2722C65.0996 77.3277 66.2169 77.8654 67.3309 77.8357C66.2301 79.607 65.407 81.5631 64.9111 83.6477C64.1475 82.8429 62.9773 82.4372 61.7872 82.7406C60.3625 83.1035 59.3674 84.38 59.3674 85.8479V90.4823C59.3674 91.9469 60.3625 93.2267 61.7872 93.5896C62.9773 93.893 64.1475 93.4873 64.9111 92.6825C65.4037 94.7671 66.2301 96.7232 67.3309 98.4945C66.2169 98.4615 65.1029 99.0025 64.4748 100.058C63.7244 101.318 63.926 102.924 64.964 103.963L68.2466 107.239C69.2846 108.275 70.8978 108.476 72.1606 107.727C73.2184 107.1 73.7573 105.985 73.7275 104.877C75.5027 105.976 77.463 106.797 79.5522 107.292C78.7456 108.054 78.339 109.221 78.6431 110.409C79.0067 111.831 80.2861 112.823 81.7571 112.823H86.4017C87.8694 112.823 89.152 111.831 89.5156 110.409C89.8198 109.221 89.4132 108.054 88.6066 107.292C90.6958 106.8 92.6561 105.976 94.4313 104.877C94.3982 105.989 94.9403 107.1 95.9982 107.727C97.261 108.476 98.8708 108.275 99.9121 107.239L103.195 103.963C104.233 102.928 104.434 101.318 103.684 100.058C103.056 99.0025 101.939 98.4648 100.825 98.4945C101.925 96.7232 102.748 94.7671 103.244 92.6825C104.008 93.4873 105.178 93.893 106.368 93.5896C107.793 93.2267 108.788 91.9502 108.788 90.4823V85.8479C108.788 84.3833 107.793 83.1035 106.368 82.7406C105.178 82.4372 104.008 82.8429 103.244 83.6477C102.752 81.5631 101.925 79.607 100.825 77.8357C101.939 77.8687 103.053 77.3277 103.684 76.2722C104.434 75.0122 104.233 73.4058 103.195 72.3667L99.9121 69.0913C98.8741 68.0555 97.261 67.8543 95.9982 68.6031C94.9403 69.2298 94.4015 70.3447 94.4313 71.4563C92.6561 70.3579 90.6958 69.5366 88.6066 69.0418C89.4132 68.2798 89.8198 67.1121 89.5156 65.9247C89.152 64.503 87.8727 63.5101 86.4017 63.5101H81.7571C80.2894 63.5101 79.0067 64.503 78.6431 65.9247H78.6398ZM84.0744 84.6142C86.0347 84.6142 87.6314 86.2074 87.6314 88.1634C87.6314 90.1195 86.0347 91.7127 84.0744 91.7127C82.1141 91.7127 80.5175 90.1195 80.5175 88.1634C80.5175 86.2074 82.1141 84.6142 84.0744 84.6142Z" fill="#D9D9D9"/>
<path d="M124.07 110.749L139.207 136.909L165.425 121.805L150.288 95.6445L124.07 110.749ZM150.291 125.856L135.151 121.809L139.207 106.701L154.347 110.749L150.291 125.856Z" fill="#23AFB3"/>
<path d="M182 120.829V111.728H175.183C174.423 106.652 172.417 101.981 169.484 98.0327L174.314 93.2135L167.865 86.7781L163.035 91.5972C159.078 88.6681 154.394 86.6659 149.31 85.9105V79.1089H140.189V85.9105C135.102 86.6692 130.421 88.6714 126.464 91.5972L121.634 86.7781L115.185 93.2135L120.014 98.0327C117.079 101.981 115.072 106.655 114.315 111.728H107.499V120.829H114.315C115.075 125.905 117.082 130.576 120.014 134.528L115.185 139.347L121.634 145.782L126.464 140.963C130.421 143.889 135.105 145.895 140.189 146.65V153.452H149.31V146.65C154.397 145.891 159.078 143.889 163.035 140.963L167.865 145.782L174.314 139.347L169.484 134.528C172.417 130.579 174.426 125.905 175.183 120.832H182V120.829ZM144.748 141.089C131.039 141.089 119.885 129.959 119.885 116.28C119.885 102.601 131.039 91.4719 144.748 91.4719C158.457 91.4719 169.61 102.601 169.61 116.28C169.61 129.959 158.457 141.089 144.748 141.089Z" fill="#23AFB3"/>
</g>
<defs>
<clipPath id="clip0_141_25">
<rect width="182" height="195" fill="white"/>
</clipPath>
</defs>
</svg>
