<svg width="112" height="112" viewBox="0 0 112 112" fill="none" xmlns="http://www.w3.org/2000/svg">
<g id="javascript-logo 1">
<path id="rect2" d="M88.4501 21.1898H23.5498C22.2464 21.1898 21.1898 22.2464 21.1898 23.5498V88.4501C21.1898 89.7535 22.2464 90.8102 23.5498 90.8102H88.4501C89.7535 90.8102 90.8102 89.7535 90.8102 88.4501V23.5498C90.8102 22.2464 89.7535 21.1898 88.4501 21.1898Z" fill="#F7DF1E"/>
<path id="path4" d="M67.957 75.581C69.3594 77.8707 71.1839 79.5538 74.4107 79.5538C77.1215 79.5538 78.8532 78.1989 78.8532 76.3269C78.8532 74.0836 77.074 73.289 74.0903 71.9839L72.4547 71.2822C67.7338 69.2709 64.5976 66.7514 64.5976 61.4248C64.5976 56.5183 68.3361 52.7831 74.1787 52.7831C78.3382 52.7831 81.3286 54.2307 83.4835 58.0212L78.389 61.2922C77.2674 59.281 76.0573 58.4886 74.1787 58.4886C72.2624 58.4886 71.048 59.7042 71.048 61.2922C71.048 63.2549 72.2636 64.0494 75.0705 65.265L76.706 65.9656C82.2646 68.3493 85.403 70.7794 85.403 76.2429C85.403 82.133 80.776 85.3599 74.5621 85.3599C68.4864 85.3599 64.5611 82.4646 62.6405 78.6697L67.957 75.581ZM44.8464 76.1479C45.8741 77.9713 46.809 79.5129 49.0568 79.5129C51.2062 79.5129 52.5621 78.6719 52.5621 75.402V53.1566H59.1042V75.4904C59.1042 82.2645 55.1325 85.3477 49.3353 85.3477C44.0972 85.3477 41.0637 82.6369 39.521 79.372L44.8464 76.1479Z" fill="black"/>
</g>
</svg>
