<svg width="180" height="159" viewBox="0 0 180 159" fill="none" xmlns="http://www.w3.org/2000/svg">
  <g clip-path="url(#clip0_142_62)">
    <path d="M139.377 41.5297L145.627 38.4928V36.8192L139.377 33.7346V35.814L143.082 37.6468L139.377 39.4477V41.5297Z" fill="#23AFB3"/>
    <path d="M61.1055 91.0481L67.3554 88.0112V86.3376L61.1055 83.253V85.3324L64.811 87.1651L61.1055 88.966V91.0481Z" fill="#D9D9D9"/>
    <path d="M98.063 124.064L104.313 121.027V119.353L98.063 116.269V118.348L101.769 120.181L98.063 121.982V124.064Z" fill="#D9D9D9"/>
    <path d="M65.1047 0.710815L58.8547 3.7477V5.4213L65.1047 8.50592V6.42652L61.3991 4.59378L65.1047 2.79287V0.710815Z" fill="#23AFB3"/>
    <path d="M5.65748 0H0V159H5.65748V0Z" fill="#D9D9D9"/>
    <path d="M33.5693 16.5079V25.7247L74.6238 25.7247V16.5079H33.5693Z" fill="#D9D9D9"/>
    <path d="M79.3821 16.5079V25.7247L173.15 25.7247V16.5079L79.3821 16.5079Z" fill="#23AFB3"/>
    <path d="M79.8977 66.0343V75.251H120.883V66.0343H79.8977Z" fill="#23AFB3"/>
    <path d="M33.5667 33.0158V42.2325H74.6211V33.0158H33.5667Z" fill="#D9D9D9"/>
    <path d="M79.3845 33.0158V42.2325H134.616V33.0158H79.3845Z" fill="#23AFB3"/>
    <path d="M33.5667 99.0501V108.267H60.9257V99.0501H33.5667Z" fill="#D9D9D9"/>
    <path d="M65.6865 99.0501V108.267H133.96V99.0501H65.6865Z" fill="#D9D9D9"/>
    <path d="M33.5667 132.069V141.285H73.3436V132.069H33.5667Z" fill="#23AFB3"/>
    <path d="M33.5667 115.558V124.775H60.9257V115.558H33.5667Z" fill="#D9D9D9"/>
    <path d="M65.6865 115.558V124.775H93.3021V115.558H65.6865Z" fill="#D9D9D9"/>
    <path d="M79.8315 49.5237V58.7405H120.886V49.5237H79.8315Z" fill="#D9D9D9"/>
    <path d="M125.647 49.5237V58.7405H146.415V49.5237H125.647Z" fill="#D9D9D9"/>
    <path d="M13.0396 -9.53674e-07V9.21674L54.094 9.21674V-9.53674e-07L13.0396 -9.53674e-07Z" fill="#D9D9D9"/>
    <path d="M69.8655 -2.86102e-06V9.21674L152.456 9.21674V-2.86102e-06L69.8655 -2.86102e-06Z" fill="#D9D9D9"/>
    <path d="M170.812 -0.00265789V9.21408H180.003V-0.00265789H170.812Z" fill="#23AFB3"/>
    <path d="M166.051 0L160.322 9.21674H157.217L162.943 0H166.051Z" fill="#23AFB3"/>
    <path d="M42.578 82.5422L36.8517 91.7589H33.7466L39.4728 82.5422H42.578Z" fill="#23AFB3"/>
    <path d="M35.8228 148.576L30.0966 157.791H26.9915L32.7177 148.576H35.8228Z" fill="#23AFB3"/>
    <path d="M47.2461 82.5422V91.7589H56.4372V82.5422H47.2461Z" fill="#23AFB3"/>
    <path d="M13.0396 148.576V157.793H22.2306V148.576H13.0396Z" fill="#23AFB3"/>
  </g>
  <defs>
    <clipPath id="clip0_142_62">
      <rect width="180" height="159" fill="white"/>
    </clipPath>
  </defs>
</svg>