<svg width="142" height="76" viewBox="0 0 142 76" fill="none" xmlns="http://www.w3.org/2000/svg">
<g id="new-php-logo 1">
<g id="g3438">
<g id="g3440">
<g id="g3442">
<g id="g3448">
<g id="g3450">
<path id="path3462" d="M1.99658 38C1.99658 57.8925 32.8911 74.0188 70.9998 74.0188C109.109 74.0188 140.003 57.8925 140.003 38C140.003 18.1079 109.109 1.98129 70.9998 1.98129C32.8911 1.98129 1.99658 18.1079 1.99658 38Z" fill="url(#paint0_radial_603_108)"/>
</g>
</g>
</g>
</g>
<g id="g3464">
<g id="g3466">
<g id="g3472">
<path id="path3474" d="M70.9999 71.3445C107.62 71.3445 137.308 56.4156 137.308 37.9999C137.308 19.5845 107.62 4.65533 70.9999 4.65533C34.3797 4.65533 4.69214 19.5845 4.69214 37.9999C4.69214 56.4156 34.3797 71.3445 70.9999 71.3445Z" fill="#777BB3"/>
</g>
</g>
</g>
<g id="g3476">
<g id="g3478">
<g id="g3484">
<path id="path3486" d="M39.4869 42.1343C42.4981 42.1343 44.746 41.5833 46.1684 40.4971C47.5755 39.422 48.5473 37.5594 49.0567 34.9612C49.5317 32.5327 49.3507 30.837 48.5191 29.9219C47.6688 28.9873 45.8304 28.5133 43.0551 28.5133H38.243L35.5753 42.1343H39.4869ZM23.7478 58.913C23.5244 58.913 23.3123 58.8139 23.1703 58.6425C23.028 58.4714 22.9704 58.246 23.013 58.0283L30.0831 21.9323C30.1515 21.5834 30.4597 21.3313 30.8181 21.3313H46.0558C50.8447 21.3313 54.4092 22.6215 56.6496 25.1667C58.9021 27.7252 59.5976 31.3016 58.7169 35.7963C58.3585 37.6275 57.742 39.3281 56.8847 40.8507C56.0264 42.375 54.8921 43.7854 53.5127 45.0435C51.8615 46.577 49.9926 47.689 47.9631 48.3433C45.9657 48.9889 43.4005 49.3163 40.339 49.3163H34.1689L32.4069 58.3117C32.3385 58.6609 32.0305 58.913 31.6721 58.913H23.7478Z" fill="black"/>
</g>
<g id="g3488">
<path id="path3490" d="M38.8602 29.2561H43.0551C46.4047 29.2561 47.5682 29.9854 47.9636 30.42C48.6195 31.1417 48.7433 32.6633 48.3217 34.8201C47.848 37.2348 46.97 38.9468 45.7116 39.9082C44.4233 40.8924 42.3289 41.3912 39.4869 41.3912H36.4835L38.8602 29.2561ZM46.0558 20.5881H30.8178C30.101 20.5881 29.4848 21.0923 29.3481 21.7905L22.278 57.8865C22.1927 58.3221 22.308 58.7726 22.5923 59.1151C22.8768 59.4576 23.3006 59.6558 23.7478 59.6558H31.6719C32.3889 59.6558 33.0051 59.1515 33.1419 58.4534L34.7861 50.0591H40.339C43.4792 50.0591 46.1227 49.7193 48.1954 49.0494C50.3271 48.3622 52.2883 47.197 54.0241 45.5862C55.4596 44.2756 56.6421 42.8045 57.5381 41.2134C58.4344 39.6217 59.0783 37.8467 59.4519 35.9378C60.3791 31.2066 59.6258 27.418 57.2134 24.6779C54.8245 21.9641 51.0703 20.5881 46.0558 20.5881ZM34.6668 42.8771H39.4869C42.6818 42.8771 45.0615 42.28 46.6251 41.0856C48.1889 39.8909 49.2437 37.897 49.7917 35.103C50.3161 32.4204 50.0772 30.5273 49.0752 29.4245C48.0719 28.3217 46.0655 27.7701 43.0551 27.7701H37.6258L34.6668 42.8771ZM46.0558 22.0741C50.6398 22.0741 53.9839 23.2677 56.0858 25.6554C58.1875 28.043 58.8205 31.3757 57.9819 35.6545C57.6367 37.417 57.0529 39.0285 56.2311 40.4885C55.4082 41.9494 54.3338 43.2852 53.006 44.4965C51.4237 45.9659 49.6659 47.013 47.7317 47.6365C45.7975 48.2619 43.3339 48.5732 40.339 48.5732H33.5515L31.6719 58.1698H23.7478L30.8178 22.0741H46.0558Z" fill="white"/>
</g>
<g id="g3492">
<path id="path3494" d="M76.8856 49.3163C76.662 49.3163 76.4501 49.2172 76.3081 49.0458C76.1656 48.8747 76.1079 48.6496 76.1506 48.4317L79.2781 32.4606C79.5756 30.9417 79.5022 29.8516 79.0717 29.3909C78.8081 29.1093 78.0165 28.6371 75.6757 28.6371H70.0098L66.0777 48.715C66.0093 49.0642 65.701 49.3163 65.3427 49.3163H57.481C57.2573 49.3163 57.0454 49.2172 56.9032 49.0458C56.7609 48.8747 56.7033 48.6493 56.7459 48.4317L63.816 12.3356C63.8844 11.9867 64.1926 11.7346 64.551 11.7346H72.4127C72.6363 11.7346 72.8482 11.8336 72.9905 12.0048C73.1327 12.1761 73.1904 12.4013 73.1477 12.6192L71.4416 21.3312H77.5368C82.1802 21.3312 85.3288 22.1435 87.1627 23.8147C89.0321 25.5196 89.6153 28.2455 88.8966 31.9177L85.6071 48.715C85.5387 49.0642 85.2308 49.3163 84.8721 49.3163H76.8856Z" fill="black"/>
</g>
<g id="g3496">
<path id="path3498" d="M72.4129 10.9914H64.5512C63.8342 10.9914 63.218 11.4957 63.0812 12.1938L56.0112 48.2898C55.9258 48.7255 56.0411 49.1759 56.3257 49.5185C56.6102 49.861 57.034 50.0591 57.4812 50.0591H65.3429C66.0597 50.0591 66.6761 49.5549 66.8129 48.8567L70.6272 29.3799H75.6759C78.0127 29.3799 78.5031 29.8752 78.5228 29.8965C78.6646 30.0478 78.851 30.7486 78.5433 32.3188L75.4159 48.2898C75.3305 48.7255 75.4458 49.1759 75.7303 49.5185C76.0148 49.861 76.4386 50.0591 76.8859 50.0591H84.8724C85.5891 50.0591 86.2056 49.5549 86.3424 48.8567L89.6316 32.0595C90.4035 28.1166 89.7431 25.1588 87.6696 23.2677C85.691 21.4645 82.3766 20.5881 77.537 20.5881H72.3498L73.8829 12.7609C73.9681 12.3253 73.853 11.8746 73.5685 11.5323C73.284 11.1898 72.8602 10.9914 72.4129 10.9914ZM72.4129 12.4774L70.5334 22.074H77.537C81.9438 22.074 84.9834 22.8373 86.6563 24.3619C88.3293 25.8874 88.8304 28.3593 88.1618 31.7762L84.8724 48.5731H76.8859L80.0133 32.6023C80.3692 30.7855 80.2384 29.5463 79.6205 28.8855C79.0023 28.2248 77.6873 27.8939 75.6759 27.8939H69.3925L65.3429 48.5731H57.4812L64.5512 12.4774H72.4129Z" fill="white"/>
</g>
<g id="g3500">
<path id="path3502" d="M101.336 42.1343C104.347 42.1343 106.595 41.5833 108.017 40.4971C109.425 39.4222 110.396 37.5596 110.906 34.9612C111.381 32.5327 111.2 30.837 110.368 29.9219C109.518 28.9873 107.68 28.5133 104.904 28.5133H100.092L97.4244 42.1343H101.336ZM85.5971 58.913C85.3738 58.913 85.1616 58.8139 85.0196 58.6425C84.8774 58.4714 84.8195 58.246 84.8621 58.0283L91.9322 21.9323C92.0008 21.5834 92.3088 21.3313 92.6674 21.3313H107.905C112.694 21.3313 116.258 22.6215 118.499 25.1667C120.751 27.725 121.447 31.3014 120.566 35.7963C120.207 37.6275 119.591 39.3281 118.734 40.8507C117.876 42.375 116.741 43.7854 115.362 45.0435C113.711 46.577 111.842 47.689 109.812 48.3433C107.815 48.9889 105.25 49.3163 102.188 49.3163H96.0178L94.2565 58.3117C94.1879 58.6609 93.8799 58.913 93.5212 58.913H85.5971Z" fill="black"/>
</g>
<g id="g3504">
<path id="path3506" d="M100.709 29.2561H104.904C108.254 29.2561 109.417 29.9854 109.813 30.42C110.469 31.1417 110.593 32.6633 110.171 34.8199C109.697 37.2348 108.819 38.9468 107.561 39.9082C106.272 40.8924 104.178 41.3912 101.336 41.3912H98.3329L100.709 29.2561ZM107.905 20.5881H92.6672C91.9504 20.5881 91.3342 21.0923 91.1974 21.7905L84.1274 57.8865C84.042 58.3221 84.1573 58.7726 84.4416 59.1151C84.7261 59.4576 85.1499 59.6558 85.5972 59.6558H93.5213C94.238 59.6558 94.8545 59.1515 94.9913 58.4534L96.6352 50.0591H102.188C105.328 50.0591 107.972 49.7193 110.045 49.0494C112.176 48.3622 114.138 47.1967 115.874 45.5857C117.309 44.2754 118.491 42.8045 119.387 41.2134C120.283 39.6217 120.927 37.8467 121.301 35.9378C122.228 31.2063 121.475 27.4177 119.063 24.6777C116.674 21.9641 112.92 20.5881 107.905 20.5881ZM96.5162 42.8771H101.336C104.531 42.8771 106.911 42.28 108.474 41.0856C110.038 39.8909 111.093 37.897 111.641 35.103C112.165 32.4204 111.927 30.5273 110.924 29.4245C109.921 28.3217 107.915 27.7701 104.904 27.7701H99.4749L96.5162 42.8771ZM107.905 22.0741C112.489 22.0741 115.833 23.2677 117.935 25.6554C120.037 28.043 120.67 31.3757 119.831 35.6545C119.486 37.417 118.902 39.0285 118.08 40.4885C117.257 41.9494 116.183 43.2852 114.855 44.4965C113.273 45.9659 111.515 47.013 109.581 47.6365C107.647 48.2619 105.183 48.5732 102.188 48.5732H95.4006L93.5213 58.1698H85.5972L92.6672 22.0741H107.905Z" fill="white"/>
</g>
</g>
</g>
</g>
</g>
<defs>
<radialGradient id="paint0_radial_603_108" cx="0" cy="0" r="1" gradientUnits="userSpaceOnUse" gradientTransform="translate(43.4265 14.6444) scale(90.6112 89.9132)">
<stop stop-color="#AEB2D5"/>
<stop offset="0.3" stop-color="#AEB2D5"/>
<stop offset="0.75" stop-color="#484C89"/>
<stop offset="1" stop-color="#484C89"/>
</radialGradient>
</defs>
</svg>
