<svg width="74" height="84" viewBox="0 0 74 84" fill="none" xmlns="http://www.w3.org/2000/svg">
<g id="react-2 1">
<g id="Group">
<path id="Vector" d="M74 42.0075C74 37.124 67.861 32.4959 58.4488 29.6259C60.6209 20.0693 59.6555 12.466 55.402 10.0318C54.4215 9.46079 53.2752 9.19032 52.0232 9.19032V12.5412C52.7171 12.5412 53.2752 12.6764 53.7428 12.9318C55.7941 14.1039 56.6841 18.5666 55.9902 24.3066C55.8243 25.7191 55.5528 27.2067 55.221 28.7243C52.2646 28.0031 49.0367 27.4471 45.6429 27.0865C43.6066 24.3066 41.4949 21.7822 39.3681 19.5734C44.2854 15.0205 48.9009 12.5261 52.0383 12.5261V9.17529C47.8903 9.17529 42.4603 12.1204 36.9698 17.2293C31.4794 12.1505 26.0493 9.2354 21.9013 9.2354V12.5862C25.0236 12.5862 29.6543 15.0656 34.5715 19.5884C32.4598 21.7973 30.3481 24.3066 28.342 27.0865C24.9331 27.4471 21.7053 28.0031 18.7489 28.7394C18.402 27.2367 18.1455 25.7792 17.9645 24.3818C17.2556 18.6418 18.1305 14.179 20.1667 12.9919C20.6192 12.7215 21.2075 12.6013 21.9013 12.6013V9.25042C20.6343 9.25042 19.488 9.52089 18.4925 10.0919C14.254 12.5261 13.3037 20.1143 15.4908 29.6409C6.10885 32.526 0 37.139 0 42.0075C0 46.891 6.13901 51.519 15.5512 54.389C13.3791 63.9457 14.3445 71.5489 18.598 73.9832C19.5785 74.5542 20.7248 74.8246 21.9918 74.8246C26.1398 74.8246 31.5699 71.8795 37.0603 66.7706C42.5508 71.8494 47.9808 74.7645 52.1288 74.7645C53.3958 74.7645 54.5422 74.4941 55.5377 73.9231C59.7762 71.4888 60.7265 63.9006 58.5393 54.374C67.8912 51.504 74 46.876 74 42.0075ZM54.3612 31.985C53.8031 33.9234 53.1093 35.9219 52.3249 37.9204C51.7065 36.7183 51.0579 35.5162 50.349 34.3141C49.6551 33.112 48.916 31.9399 48.1769 30.798C50.3188 31.1135 52.3852 31.5042 54.3612 31.985ZM47.4529 47.9879C46.2764 50.0164 45.0697 51.9398 43.8178 53.7279C41.5703 53.9232 39.2927 54.0284 37 54.0284C34.7224 54.0284 32.4448 53.9232 30.2124 53.7429C28.9605 51.9548 27.7387 50.0465 26.5622 48.033C25.4158 46.0645 24.3751 44.0661 23.4248 42.0526C24.36 40.039 25.4158 38.0255 26.5471 36.0571C27.7236 34.0286 28.9303 32.1052 30.1822 30.3171C32.4297 30.1218 34.7073 30.0166 37 30.0166C39.2776 30.0166 41.5552 30.1218 43.7876 30.3021C45.0395 32.0902 46.2613 33.9985 47.4378 36.012C48.5842 37.9805 49.625 39.9789 50.5752 41.9924C49.625 44.006 48.5842 46.0195 47.4529 47.9879ZM52.3249 46.0345C53.1394 48.048 53.8333 50.0615 54.4064 52.0149C52.4305 52.4957 50.349 52.9014 48.192 53.217C48.9311 52.06 49.6702 50.8729 50.3641 49.6558C51.0579 48.4537 51.7065 47.2366 52.3249 46.0345ZM37.0302 62.0674C35.6274 60.6249 34.2246 59.0171 32.8369 57.259C34.1945 57.3191 35.5821 57.3642 36.9849 57.3642C38.4028 57.3642 39.8055 57.3342 41.1782 57.259C39.8206 59.0171 38.4179 60.6249 37.0302 62.0674ZM25.808 53.217C23.6661 52.9014 21.5997 52.5108 19.6237 52.0299C20.1818 50.0916 20.8757 48.0931 21.66 46.0946C22.2784 47.2967 22.927 48.4988 23.636 49.7009C24.3449 50.903 25.0689 52.075 25.808 53.217ZM36.9548 21.9475C38.3575 23.39 39.7603 24.9979 41.148 26.7559C39.7905 26.6958 38.4028 26.6507 37 26.6507C35.5821 26.6507 34.1794 26.6808 32.8068 26.7559C34.1643 24.9979 35.5671 23.39 36.9548 21.9475ZM25.7929 30.798C25.0538 31.955 24.3147 33.142 23.6209 34.3592C22.927 35.5612 22.2784 36.7633 21.66 37.9654C20.8455 35.9519 20.1517 33.9384 19.5785 31.985C21.5544 31.5192 23.636 31.1135 25.7929 30.798ZM12.1423 49.6107C6.80269 47.3418 3.34855 44.3666 3.34855 42.0075C3.34855 39.6484 6.80269 36.6582 12.1423 34.4042C13.4395 33.8483 14.8573 33.3524 16.3204 32.8866C17.1802 35.8317 18.3115 38.8971 19.7142 42.0375C18.3265 45.163 17.2104 48.2133 16.3657 51.1434C14.8724 50.6776 13.4545 50.1667 12.1423 49.6107ZM20.2572 71.0831C18.2059 69.9111 17.3159 65.4483 18.0098 59.7083C18.1757 58.2958 18.4472 56.8083 18.779 55.2906C21.7354 56.0119 24.9633 56.5678 28.3571 56.9285C30.3934 59.7083 32.5051 62.2327 34.6319 64.4415C29.7146 68.9945 25.0991 71.4888 21.9617 71.4888C21.2829 71.4738 20.7097 71.3386 20.2572 71.0831ZM56.0355 59.6332C56.7444 65.3732 55.8695 69.8359 53.8333 71.023C53.3808 71.2935 52.7925 71.4137 52.0987 71.4137C48.9764 71.4137 44.3457 68.9344 39.4285 64.4115C41.5402 62.2026 43.6519 59.6933 45.658 56.9134C49.0669 56.5528 52.2947 55.9968 55.2511 55.2606C55.598 56.7782 55.8696 58.2357 56.0355 59.6332ZM61.8426 49.6107C60.5455 50.1667 59.1276 50.6626 57.6645 51.1284C56.8047 48.1832 55.6735 45.1179 54.2707 41.9774C55.6584 38.852 56.7746 35.8017 57.6192 32.8716C59.1125 33.3374 60.5304 33.8483 61.8577 34.4042C67.1973 36.6732 70.6514 39.6484 70.6514 42.0075C70.6364 44.3666 67.1822 47.3568 61.8426 49.6107Z" fill="#61DAFB"/>
<path id="Vector_2" d="M36.9849 48.8744C40.7919 48.8744 43.8781 45.8 43.8781 42.0075C43.8781 38.2149 40.7919 35.1405 36.9849 35.1405C33.1779 35.1405 30.0917 38.2149 30.0917 42.0075C30.0917 45.8 33.1779 48.8744 36.9849 48.8744Z" fill="#61DAFB"/>
</g>
</g>
</svg>
